<svg id="visual" viewBox="0 0 960 540" width="960" height="540" xmlns="http://www.w3.org/2000/svg" xmlns:xlink="http://www.w3.org/1999/xlink" version="1.1"><rect x="0" y="0" width="960" height="540" fill="#563F6C"></rect><defs><linearGradient id="grad1_0" x1="43.8%" y1="0%" x2="100%" y2="100%"><stop offset="14.444444444444446%" stop-color="#563f6c" stop-opacity="1"></stop><stop offset="85.55555555555554%" stop-color="#563f6c" stop-opacity="1"></stop></linearGradient></defs><defs><linearGradient id="grad2_0" x1="0%" y1="0%" x2="56.3%" y2="100%"><stop offset="14.444444444444446%" stop-color="#563f6c" stop-opacity="1"></stop><stop offset="85.55555555555554%" stop-color="#563f6c" stop-opacity="1"></stop></linearGradient></defs><g transform="translate(960, 0)"><path d="M0 486C-57.4 450.1 -114.8 414.2 -156.5 377.9C-198.2 341.6 -224.3 304.9 -277.2 277.2C-330.1 249.5 -409.7 230.7 -449 186C-488.3 141.3 -487.1 70.6 -486 0L0 0Z" fill="#1E1D1F"></path></g><g transform="translate(0, 540)"><path d="M0 -486C67.5 -482.6 135 -479.3 186 -449C237 -418.7 271.5 -361.5 315.4 -315.4C359.3 -269.2 412.5 -234 442.5 -183.3C472.5 -132.6 479.3 -66.3 486 0L0 0Z" fill="#1E1D1F"></path></g></svg>