<svg id="visual" viewBox="0 0 900 600" width="900" height="600" xmlns="http://www.w3.org/2000/svg" xmlns:xlink="http://www.w3.org/1999/xlink" version="1.1"><path d="M0 73L25 79C50 85 100 97 150 92C200 87 250 65 300 55C350 45 400 47 450 56C500 65 550 81 600 90C650 99 700 101 750 101C800 101 850 99 875 98L900 97L900 0L875 0C850 0 800 0 750 0C700 0 650 0 600 0C550 0 500 0 450 0C400 0 350 0 300 0C250 0 200 0 150 0C100 0 50 0 25 0L0 0Z" fill="#352557"></path><path d="M0 295L25 278C50 261 100 227 150 221C200 215 250 237 300 247C350 257 400 255 450 253C500 251 550 249 600 244C650 239 700 231 750 221C800 211 850 199 875 193L900 187L900 95L875 96C850 97 800 99 750 99C700 99 650 97 600 88C550 79 500 63 450 54C400 45 350 43 300 53C250 63 200 85 150 90C100 95 50 83 25 77L0 71Z" fill="#3f2b66"></path><path d="M0 385L25 394C50 403 100 421 150 419C200 417 250 395 300 394C350 393 400 413 450 427C500 441 550 449 600 454C650 459 700 461 750 460C800 459 850 455 875 453L900 451L900 185L875 191C850 197 800 209 750 219C700 229 650 237 600 242C550 247 500 249 450 251C400 253 350 255 300 245C250 235 200 213 150 219C100 225 50 259 25 276L0 293Z" fill="#4a3176"></path><path d="M0 469L25 481C50 493 100 517 150 514C200 511 250 481 300 473C350 465 400 479 450 493C500 507 550 521 600 528C650 535 700 535 750 535C800 535 850 535 875 535L900 535L900 449L875 451C850 453 800 457 750 458C700 459 650 457 600 452C550 447 500 439 450 425C400 411 350 391 300 392C250 393 200 415 150 417C100 419 50 401 25 392L0 383Z" fill="#5d4587"></path><path d="M0 601L25 601C50 601 100 601 150 601C200 601 250 601 300 601C350 601 400 601 450 601C500 601 550 601 600 601C650 601 700 601 750 601C800 601 850 601 875 601L900 601L900 533L875 533C850 533 800 533 750 533C700 533 650 533 600 526C550 519 500 505 450 491C400 477 350 463 300 471C250 479 200 509 150 512C100 515 50 491 25 479L0 467Z" fill="#705998"></path></svg>