<svg id="visual" viewBox="0 0 900 600" width="900" height="600" xmlns="http://www.w3.org/2000/svg" xmlns:xlink="http://www.w3.org/1999/xlink" version="1.1"><path d="M0 97L13.7 96C27.3 95 54.7 93 82 85C109.3 77 136.7 63 163.8 66C191 69 218 89 245.2 98C272.3 107 299.7 105 327 103C354.3 101 381.7 99 409 96C436.3 93 463.7 89 491 93C518.3 97 545.7 109 573 115C600.3 121 627.7 121 654.8 112C682 103 709 85 736.2 80C763.3 75 790.7 83 818 92C845.3 101 872.7 111 886.3 116L900 121L900 0L886.3 0C872.7 0 845.3 0 818 0C790.7 0 763.3 0 736.2 0C709 0 682 0 654.8 0C627.7 0 600.3 0 573 0C545.7 0 518.3 0 491 0C463.7 0 436.3 0 409 0C381.7 0 354.3 0 327 0C299.7 0 272.3 0 245.2 0C218 0 191 0 163.8 0C136.7 0 109.3 0 82 0C54.7 0 27.3 0 13.7 0L0 0Z" fill="#161616"></path><path d="M0 199L13.7 204C27.3 209 54.7 219 82 219C109.3 219 136.7 209 163.8 231C191 253 218 307 245.2 314C272.3 321 299.7 281 327 268C354.3 255 381.7 269 409 288C436.3 307 463.7 331 491 321C518.3 311 545.7 267 573 249C600.3 231 627.7 239 654.8 239C682 239 709 231 736.2 223C763.3 215 790.7 207 818 207C845.3 207 872.7 215 886.3 219L900 223L900 119L886.3 114C872.7 109 845.3 99 818 90C790.7 81 763.3 73 736.2 78C709 83 682 101 654.8 110C627.7 119 600.3 119 573 113C545.7 107 518.3 95 491 91C463.7 87 436.3 91 409 94C381.7 97 354.3 99 327 101C299.7 103 272.3 105 245.2 96C218 87 191 67 163.8 64C136.7 61 109.3 75 82 83C54.7 91 27.3 93 13.7 94L0 95Z" fill="#232323"></path><path d="M0 343L13.7 348C27.3 353 54.7 363 82 365C109.3 367 136.7 361 163.8 371C191 381 218 407 245.2 398C272.3 389 299.7 345 327 341C354.3 337 381.7 373 409 393C436.3 413 463.7 417 491 401C518.3 385 545.7 349 573 342C600.3 335 627.7 357 654.8 370C682 383 709 387 736.2 375C763.3 363 790.7 335 818 322C845.3 309 872.7 311 886.3 312L900 313L900 221L886.3 217C872.7 213 845.3 205 818 205C790.7 205 763.3 213 736.2 221C709 229 682 237 654.8 237C627.7 237 600.3 229 573 247C545.7 265 518.3 309 491 319C463.7 329 436.3 305 409 286C381.7 267 354.3 253 327 266C299.7 279 272.3 319 245.2 312C218 305 191 251 163.8 229C136.7 207 109.3 217 82 217C54.7 217 27.3 207 13.7 202L0 197Z" fill="#3e3e3e"></path><path d="M0 517L13.7 521C27.3 525 54.7 533 82 541C109.3 549 136.7 557 163.8 557C191 557 218 549 245.2 541C272.3 533 299.7 525 327 527C354.3 529 381.7 541 409 540C436.3 539 463.7 525 491 522C518.3 519 545.7 527 573 534C600.3 541 627.7 547 654.8 547C682 547 709 541 736.2 535C763.3 529 790.7 523 818 523C845.3 523 872.7 529 886.3 532L900 535L900 311L886.3 310C872.7 309 845.3 307 818 320C790.7 333 763.3 361 736.2 373C709 385 682 381 654.8 368C627.7 355 600.3 333 573 340C545.7 347 518.3 383 491 399C463.7 415 436.3 411 409 391C381.7 371 354.3 335 327 339C299.7 343 272.3 387 245.2 396C218 405 191 379 163.8 369C136.7 359 109.3 365 82 363C54.7 361 27.3 351 13.7 346L0 341Z" fill="#232323"></path><path d="M0 601L13.7 601C27.3 601 54.7 601 82 601C109.3 601 136.7 601 163.8 601C191 601 218 601 245.2 601C272.3 601 299.7 601 327 601C354.3 601 381.7 601 409 601C436.3 601 463.7 601 491 601C518.3 601 545.7 601 573 601C600.3 601 627.7 601 654.8 601C682 601 709 601 736.2 601C763.3 601 790.7 601 818 601C845.3 601 872.7 601 886.3 601L900 601L900 533L886.3 530C872.7 527 845.3 521 818 521C790.7 521 763.3 527 736.2 533C709 539 682 545 654.8 545C627.7 545 600.3 539 573 532C545.7 525 518.3 517 491 520C463.7 523 436.3 537 409 538C381.7 539 354.3 527 327 525C299.7 523 272.3 531 245.2 539C218 547 191 555 163.8 555C136.7 555 109.3 547 82 539C54.7 531 27.3 523 13.7 519L0 515Z" fill="#161616"></path></svg>