<svg id="visual" viewBox="0 0 900 600" width="900" height="600" xmlns="http://www.w3.org/2000/svg" xmlns:xlink="http://www.w3.org/1999/xlink" version="1.1"><rect x="0" y="0" width="900" height="600" fill="#321860"></rect><path d="M0 381L129 412L257 438L386 380L514 424L643 445L771 413L900 397L900 601L771 601L643 601L514 601L386 601L257 601L129 601L0 601Z" fill="#2f1856"></path><path d="M0 430L129 398L257 423L386 409L514 420L643 416L771 470L900 427L900 601L771 601L643 601L514 601L386 601L257 601L129 601L0 601Z" fill="#2b1a47"></path><path d="M0 508L129 491L257 510L386 510L514 485L643 446L771 461L900 485L900 601L771 601L643 601L514 601L386 601L257 601L129 601L0 601Z" fill="#271b38"></path><path d="M0 515L129 518L257 540L386 490L514 519L643 540L771 529L900 535L900 601L771 601L643 601L514 601L386 601L257 601L129 601L0 601Z" fill="#221b29"></path><path d="M0 533L129 555L257 533L386 535L514 529L643 557L771 573L900 553L900 601L771 601L643 601L514 601L386 601L257 601L129 601L0 601Z" fill="#1b1b1b"></path></svg>