<svg id="visual" viewBox="0 0 900 600" width="900" height="600" xmlns="http://www.w3.org/2000/svg" xmlns:xlink="http://www.w3.org/1999/xlink" version="1.1"><rect x="0" y="0" width="900" height="600" fill="#FFFFFF"></rect><path d="M0 462L8.8 458.2C17.7 454.3 35.3 446.7 53 445.7C70.7 444.7 88.3 450.3 106 455.2C123.7 460 141.3 464 159 467C176.7 470 194.3 472 212 472.8C229.7 473.7 247.3 473.3 265 467.8C282.7 462.3 300.3 451.7 318 451C335.7 450.3 353.3 459.7 371 462.7C388.7 465.7 406.3 462.3 423.8 461.8C441.3 461.3 458.7 463.7 476.2 458.2C493.7 452.7 511.3 439.3 529 435.7C546.7 432 564.3 438 582 438.2C599.7 438.3 617.3 432.7 635 435.8C652.7 439 670.3 451 688 450C705.7 449 723.3 435 741 429C758.7 423 776.3 425 794 431.5C811.7 438 829.3 449 847 450.3C864.7 451.7 882.3 443.3 891.2 439.2L900 435L900 601L891.2 601C882.3 601 864.7 601 847 601C829.3 601 811.7 601 794 601C776.3 601 758.7 601 741 601C723.3 601 705.7 601 688 601C670.3 601 652.7 601 635 601C617.3 601 599.7 601 582 601C564.3 601 546.7 601 529 601C511.3 601 493.7 601 476.2 601C458.7 601 441.3 601 423.8 601C406.3 601 388.7 601 371 601C353.3 601 335.7 601 318 601C300.3 601 282.7 601 265 601C247.3 601 229.7 601 212 601C194.3 601 176.7 601 159 601C141.3 601 123.7 601 106 601C88.3 601 70.7 601 53 601C35.3 601 17.7 601 8.8 601L0 601Z" fill="#452f6a"></path><path d="M0 481L8.8 474.5C17.7 468 35.3 455 53 452.7C70.7 450.3 88.3 458.7 106 456.8C123.7 455 141.3 443 159 439.3C176.7 435.7 194.3 440.3 212 440.3C229.7 440.3 247.3 435.7 265 435.2C282.7 434.7 300.3 438.3 318 444.8C335.7 451.3 353.3 460.7 371 469.3C388.7 478 406.3 486 423.8 482.8C441.3 479.7 458.7 465.3 476.2 464.5C493.7 463.7 511.3 476.3 529 476.2C546.7 476 564.3 463 582 460.2C599.7 457.3 617.3 464.7 635 468.2C652.7 471.7 670.3 471.3 688 464.7C705.7 458 723.3 445 741 440.3C758.7 435.7 776.3 439.3 794 441C811.7 442.7 829.3 442.3 847 447C864.7 451.7 882.3 461.3 891.2 466.2L900 471L900 601L891.2 601C882.3 601 864.7 601 847 601C829.3 601 811.7 601 794 601C776.3 601 758.7 601 741 601C723.3 601 705.7 601 688 601C670.3 601 652.7 601 635 601C617.3 601 599.7 601 582 601C564.3 601 546.7 601 529 601C511.3 601 493.7 601 476.2 601C458.7 601 441.3 601 423.8 601C406.3 601 388.7 601 371 601C353.3 601 335.7 601 318 601C300.3 601 282.7 601 265 601C247.3 601 229.7 601 212 601C194.3 601 176.7 601 159 601C141.3 601 123.7 601 106 601C88.3 601 70.7 601 53 601C35.3 601 17.7 601 8.8 601L0 601Z" fill="#3f2c5c"></path><path d="M0 494L8.8 489.5C17.7 485 35.3 476 53 477C70.7 478 88.3 489 106 489.7C123.7 490.3 141.3 480.7 159 477.7C176.7 474.7 194.3 478.3 212 479.8C229.7 481.3 247.3 480.7 265 482.2C282.7 483.7 300.3 487.3 318 484.3C335.7 481.3 353.3 471.7 371 468.3C388.7 465 406.3 468 423.8 473.5C441.3 479 458.7 487 476.2 492.2C493.7 497.3 511.3 499.7 529 503C546.7 506.3 564.3 510.7 582 506C599.7 501.3 617.3 487.7 635 479.2C652.7 470.7 670.3 467.3 688 466.5C705.7 465.7 723.3 467.3 741 471.7C758.7 476 776.3 483 794 489.8C811.7 496.7 829.3 503.3 847 498C864.7 492.7 882.3 475.3 891.2 466.7L900 458L900 601L891.2 601C882.3 601 864.7 601 847 601C829.3 601 811.7 601 794 601C776.3 601 758.7 601 741 601C723.3 601 705.7 601 688 601C670.3 601 652.7 601 635 601C617.3 601 599.7 601 582 601C564.3 601 546.7 601 529 601C511.3 601 493.7 601 476.2 601C458.7 601 441.3 601 423.8 601C406.3 601 388.7 601 371 601C353.3 601 335.7 601 318 601C300.3 601 282.7 601 265 601C247.3 601 229.7 601 212 601C194.3 601 176.7 601 159 601C141.3 601 123.7 601 106 601C88.3 601 70.7 601 53 601C35.3 601 17.7 601 8.8 601L0 601Z" fill="#38294f"></path><path d="M0 519L8.8 517.2C17.7 515.3 35.3 511.7 53 510.8C70.7 510 88.3 512 106 512.8C123.7 513.7 141.3 513.3 159 517C176.7 520.7 194.3 528.3 212 525.2C229.7 522 247.3 508 265 504.7C282.7 501.3 300.3 508.7 318 509.8C335.7 511 353.3 506 371 506.3C388.7 506.7 406.3 512.3 423.8 511.8C441.3 511.3 458.7 504.7 476.2 505C493.7 505.3 511.3 512.7 529 519.2C546.7 525.7 564.3 531.3 582 532.3C599.7 533.3 617.3 529.7 635 523.7C652.7 517.7 670.3 509.3 688 511.5C705.7 513.7 723.3 526.3 741 527.8C758.7 529.3 776.3 519.7 794 516.8C811.7 514 829.3 518 847 519.5C864.7 521 882.3 520 891.2 519.5L900 519L900 601L891.2 601C882.3 601 864.7 601 847 601C829.3 601 811.7 601 794 601C776.3 601 758.7 601 741 601C723.3 601 705.7 601 688 601C670.3 601 652.7 601 635 601C617.3 601 599.7 601 582 601C564.3 601 546.7 601 529 601C511.3 601 493.7 601 476.2 601C458.7 601 441.3 601 423.8 601C406.3 601 388.7 601 371 601C353.3 601 335.7 601 318 601C300.3 601 282.7 601 265 601C247.3 601 229.7 601 212 601C194.3 601 176.7 601 159 601C141.3 601 123.7 601 106 601C88.3 601 70.7 601 53 601C35.3 601 17.7 601 8.8 601L0 601Z" fill="#322642"></path><path d="M0 538L8.8 535.3C17.7 532.7 35.3 527.3 53 524.2C70.7 521 88.3 520 106 522.2C123.7 524.3 141.3 529.7 159 534.7C176.7 539.7 194.3 544.3 212 542.5C229.7 540.7 247.3 532.3 265 527.8C282.7 523.3 300.3 522.7 318 522.2C335.7 521.7 353.3 521.3 371 520.7C388.7 520 406.3 519 423.8 521.5C441.3 524 458.7 530 476.2 536.5C493.7 543 511.3 550 529 552.3C546.7 554.7 564.3 552.3 582 546.3C599.7 540.3 617.3 530.7 635 525.7C652.7 520.7 670.3 520.3 688 522.7C705.7 525 723.3 530 741 529.8C758.7 529.7 776.3 524.3 794 528C811.7 531.7 829.3 544.3 847 549.2C864.7 554 882.3 551 891.2 549.5L900 548L900 601L891.2 601C882.3 601 864.7 601 847 601C829.3 601 811.7 601 794 601C776.3 601 758.7 601 741 601C723.3 601 705.7 601 688 601C670.3 601 652.7 601 635 601C617.3 601 599.7 601 582 601C564.3 601 546.7 601 529 601C511.3 601 493.7 601 476.2 601C458.7 601 441.3 601 423.8 601C406.3 601 388.7 601 371 601C353.3 601 335.7 601 318 601C300.3 601 282.7 601 265 601C247.3 601 229.7 601 212 601C194.3 601 176.7 601 159 601C141.3 601 123.7 601 106 601C88.3 601 70.7 601 53 601C35.3 601 17.7 601 8.8 601L0 601Z" fill="#2b2335"></path><path d="M0 578L8.8 573.2C17.7 568.3 35.3 558.7 53 555.7C70.7 552.7 88.3 556.3 106 560.2C123.7 564 141.3 568 159 566.7C176.7 565.3 194.3 558.7 212 556.5C229.7 554.3 247.3 556.7 265 560.5C282.7 564.3 300.3 569.7 318 569C335.7 568.3 353.3 561.7 371 559.5C388.7 557.3 406.3 559.7 423.8 561.5C441.3 563.3 458.7 564.7 476.2 565.5C493.7 566.3 511.3 566.7 529 567C546.7 567.3 564.3 567.7 582 566.5C599.7 565.3 617.3 562.7 635 564.5C652.7 566.3 670.3 572.7 688 572C705.7 571.3 723.3 563.7 741 562.2C758.7 560.7 776.3 565.3 794 568.7C811.7 572 829.3 574 847 571.2C864.7 568.3 882.3 560.7 891.2 556.8L900 553L900 601L891.2 601C882.3 601 864.7 601 847 601C829.3 601 811.7 601 794 601C776.3 601 758.7 601 741 601C723.3 601 705.7 601 688 601C670.3 601 652.7 601 635 601C617.3 601 599.7 601 582 601C564.3 601 546.7 601 529 601C511.3 601 493.7 601 476.2 601C458.7 601 441.3 601 423.8 601C406.3 601 388.7 601 371 601C353.3 601 335.7 601 318 601C300.3 601 282.7 601 265 601C247.3 601 229.7 601 212 601C194.3 601 176.7 601 159 601C141.3 601 123.7 601 106 601C88.3 601 70.7 601 53 601C35.3 601 17.7 601 8.8 601L0 601Z" fill="#242029"></path></svg>