<svg id="visual" viewBox="0 0 900 600" width="900" height="600" xmlns="http://www.w3.org/2000/svg" xmlns:xlink="http://www.w3.org/1999/xlink" version="1.1"><rect x="0" y="0" width="900" height="600" fill="#4A3176"></rect><defs><linearGradient id="grad1_0" x1="33.3%" y1="0%" x2="100%" y2="100%"><stop offset="20%" stop-color="#1e1d1f" stop-opacity="1"></stop><stop offset="80%" stop-color="#1e1d1f" stop-opacity="1"></stop></linearGradient></defs><defs><linearGradient id="grad1_1" x1="33.3%" y1="0%" x2="100%" y2="100%"><stop offset="20%" stop-color="#1e1d1f" stop-opacity="1"></stop><stop offset="80%" stop-color="#2a2233" stop-opacity="1"></stop></linearGradient></defs><defs><linearGradient id="grad1_2" x1="33.3%" y1="0%" x2="100%" y2="100%"><stop offset="20%" stop-color="#352748" stop-opacity="1"></stop><stop offset="80%" stop-color="#2a2233" stop-opacity="1"></stop></linearGradient></defs><defs><linearGradient id="grad1_3" x1="33.3%" y1="0%" x2="100%" y2="100%"><stop offset="20%" stop-color="#352748" stop-opacity="1"></stop><stop offset="80%" stop-color="#402c5f" stop-opacity="1"></stop></linearGradient></defs><defs><linearGradient id="grad1_4" x1="33.3%" y1="0%" x2="100%" y2="100%"><stop offset="20%" stop-color="#4a3176" stop-opacity="1"></stop><stop offset="80%" stop-color="#402c5f" stop-opacity="1"></stop></linearGradient></defs><defs><linearGradient id="grad2_0" x1="0%" y1="0%" x2="66.7%" y2="100%"><stop offset="20%" stop-color="#1e1d1f" stop-opacity="1"></stop><stop offset="80%" stop-color="#1e1d1f" stop-opacity="1"></stop></linearGradient></defs><defs><linearGradient id="grad2_1" x1="0%" y1="0%" x2="66.7%" y2="100%"><stop offset="20%" stop-color="#2a2233" stop-opacity="1"></stop><stop offset="80%" stop-color="#1e1d1f" stop-opacity="1"></stop></linearGradient></defs><defs><linearGradient id="grad2_2" x1="0%" y1="0%" x2="66.7%" y2="100%"><stop offset="20%" stop-color="#2a2233" stop-opacity="1"></stop><stop offset="80%" stop-color="#352748" stop-opacity="1"></stop></linearGradient></defs><defs><linearGradient id="grad2_3" x1="0%" y1="0%" x2="66.7%" y2="100%"><stop offset="20%" stop-color="#402c5f" stop-opacity="1"></stop><stop offset="80%" stop-color="#352748" stop-opacity="1"></stop></linearGradient></defs><defs><linearGradient id="grad2_4" x1="0%" y1="0%" x2="66.7%" y2="100%"><stop offset="20%" stop-color="#402c5f" stop-opacity="1"></stop><stop offset="80%" stop-color="#4a3176" stop-opacity="1"></stop></linearGradient></defs><g transform="translate(900, 0)"><path d="M0 486.7C-35.1 432.7 -70.1 378.7 -120.5 370.9C-170.9 363.1 -236.7 401.6 -286.1 393.8C-335.5 386 -368.7 331.9 -387.5 281.5C-406.4 231.2 -411 184.4 -425.1 138.1C-439.3 91.8 -463 45.9 -486.7 0L0 0Z" fill="#452f6a"></path><path d="M0 389.4C-28 346.2 -56.1 303 -96.4 296.7C-136.7 290.5 -189.3 321.3 -228.9 315C-268.4 308.8 -294.9 265.5 -310 225.2C-325.1 184.9 -328.8 147.6 -340.1 110.5C-351.4 73.5 -370.4 36.7 -389.4 0L0 0Z" fill="#3b2a53"></path><path d="M0 292C-21 259.6 -42.1 227.2 -72.3 222.5C-102.6 217.9 -142 241 -171.7 236.3C-201.3 231.6 -221.2 199.2 -232.5 168.9C-243.8 138.7 -246.6 110.7 -255.1 82.9C-263.6 55.1 -277.8 27.5 -292 0L0 0Z" fill="#30253e"></path><path d="M0 194.7C-14 173.1 -28 151.5 -48.2 148.4C-68.4 145.3 -94.7 160.6 -114.4 157.5C-134.2 154.4 -147.5 132.8 -155 112.6C-162.5 92.5 -164.4 73.8 -170 55.3C-175.7 36.7 -185.2 18.4 -194.7 0L0 0Z" fill="#242029"></path><path d="M0 97.3C-7 86.5 -14 75.7 -24.1 74.2C-34.2 72.6 -47.3 80.3 -57.2 78.8C-67.1 77.2 -73.7 66.4 -77.5 56.3C-81.3 46.2 -82.2 36.9 -85 27.6C-87.9 18.4 -92.6 9.2 -97.3 0L0 0Z" fill="#1e1d1f"></path></g><g transform="translate(0, 600)"><path d="M0 -486.7C41.5 -449.9 83.1 -413.1 130.1 -400.4C177.1 -387.7 229.6 -399.1 280.4 -385.9C331.2 -372.7 380.3 -334.8 393.8 -286.1C407.3 -237.4 385.1 -177.7 394.7 -128.2C404.2 -78.7 445.5 -39.4 486.7 0L0 0Z" fill="#452f6a"></path><path d="M0 -389.4C33.2 -359.9 66.5 -330.5 104.1 -320.3C141.7 -310.2 183.7 -319.3 224.3 -308.7C264.9 -298.2 304.2 -267.9 315 -228.9C325.8 -189.9 308.1 -142.2 315.8 -102.6C323.4 -63 356.4 -31.5 389.4 0L0 0Z" fill="#3b2a53"></path><path d="M0 -292C24.9 -270 49.9 -247.9 78.1 -240.2C106.3 -232.6 137.7 -239.5 168.2 -231.5C198.7 -223.6 228.2 -200.9 236.3 -171.7C244.4 -142.4 231.1 -106.6 236.8 -76.9C242.5 -47.2 267.3 -23.6 292 0L0 0Z" fill="#30253e"></path><path d="M0 -194.7C16.6 -180 33.2 -165.2 52 -160.2C70.8 -155.1 91.8 -159.6 112.1 -154.4C132.5 -149.1 152.1 -133.9 157.5 -114.4C162.9 -94.9 154.1 -71.1 157.9 -51.3C161.7 -31.5 178.2 -15.7 194.7 0L0 0Z" fill="#242029"></path><path d="M0 -97.3C8.3 -90 16.6 -82.6 26 -80.1C35.4 -77.5 45.9 -79.8 56.1 -77.2C66.2 -74.5 76.1 -67 78.8 -57.2C81.5 -47.5 77 -35.5 78.9 -25.6C80.8 -15.7 89.1 -7.9 97.3 0L0 0Z" fill="#1e1d1f"></path></g></svg>